 <svg  version="1.0" xmlns="http://www.w3.org/2000/svg"  width="209.000000pt" height="139.000000pt" viewBox="0 0 209.000000 139.000000"  preserveAspectRatio="xMidYMid meet">  <g transform="translate(0.000000,139.000000) scale(0.100000,-0.100000)" fill="#00a71c" stroke="none"> <path d="M2055 1155 c0 -212 1 -230 18 -231 12 -1 13 0 2 3 -12 4 -15 40 -18 231 l-3 227 1 -230z"/> <path d="M349 1352 c-43 -22 -59 -38 -81 -81 l-28 -53 0 -419 0 -419 100 0 100 0 0 400 0 400 600 0 600 0 0 -400 0 -400 100 0 100 0 0 414 c0 290 -3 423 -12 447 -18 54 -48 87 -102 114 l-50 25 -637 0 -637 0 -53 -28z m1385 -32 c21 -14 46 -42 57 -62 18 -35 19 -61 19 -443 0 -223 -3 -405 -7 -406 -14 -1 -108 -1 -120 0 -10 1 -13 85 -13 383 0 341 -2 383 -17 400 -15 17 -47 18 -611 18 -540 0 -597 -2 -614 -17 -17 -15 -18 -41 -18 -400 0 -248 -4 -383 -10 -384 -5 0 -32 0 -60 0 -27 0 -54 0 -60 0 -6 1 -10 143 -10 405 0 462 0 462 80 511 33 21 116 23 716 22 l630 -2 38 -25z"/> <path d="M832 943 c-17 -8 -67 -53 -112 -99 -106 -111 -106 -117 0 -228 91 -95 130 -119 168 -105 33 13 51 38 52 72 0 21 -15 43 -58 87 l-58 60 58 60 c43 44 58 66 58 87 -1 58 -55 92 -108 66z m76 -60 c2 -12 -17 -40 -53 -76 -30 -32 -55 -66 -55 -76 0 -10 25 -45 55 -77 30 -32 53 -65 52 -74 -5 -28 -18 -40 -44 -40 -35 0 -193 157 -193 193 0 18 21 44 75 96 41 39 80 71 86 71 5 0 8 4 4 9 -9 15 28 19 50 6 11 -7 21 -21 23 -32z"/> <path d="M1189 948 c-16 -5 -32 -22 -39 -38 -17 -41 -1 -77 61 -135 l48 -45 -48 -45 c-62 -58 -78 -94 -61 -134 15 -38 56 -53 96 -36 16 7 66 51 112 98 109 115 109 119 -4 237 -91 94 -122 113 -165 98z m137 -114 c46 -47 84 -94 84 -104 0 -10 -39 -57 -86 -105 -76 -76 -90 -86 -118 -83 -26 3 -32 8 -34 32 -3 24 6 38 52 82 31 30 56 62 56 73 0 11 -25 44 -55 73 -39 37 -55 60 -55 79 0 33 7 39 42 39 24 0 46 -17 114 -86z"/> <path d="M59 259 c-50 -50 14 -198 104 -246 16 -8 32 -12 35 -8 7 6 -6 18 -61 57 -52 36 -88 168 -51 182 25 10 1897 7 1913 -3 10 -6 12 -21 8 -50 -8 -59 -37 -113 -77 -139 -46 -31 -62 -57 -29 -47 68 21 127 103 136 190 4 34 1 47 -16 64 l-21 21 -960 0 -960 0 -21 -21z"/> </g> </svg> 