<?xml version="1.0" standalone="no"?>
<!DOCTYPE svg PUBLIC "-//W3C//DTD SVG 20010904//EN"
 "http://www.w3.org/TR/2001/REC-SVG-20010904/DTD/svg10.dtd">
<svg version="1.0" xmlns="http://www.w3.org/2000/svg"
 width="223.000000pt" height="139.000000pt" viewBox="0 0 223.000000 139.000000"
 preserveAspectRatio="xMidYMid meet">

<g transform="translate(0.000000,139.000000) scale(0.100000,-0.100000)"
fill="#000000" stroke="none">
<path d="M0 695 l0 -695 1115 0 1115 0 0 695 0 695 -1115 0 -1115 0 0 -695z
m1255 321 c19 -8 43 -29 54 -46 13 -22 44 -45 102 -73 70 -35 85 -47 91 -71
13 -51 -9 -77 -117 -138 -55 -31 -108 -62 -118 -68 -16 -10 -12 -18 49 -85 65
-73 68 -75 113 -75 49 0 71 -13 71 -41 0 -22 -20 -29 -85 -29 l-53 0 -86 91
c-59 63 -86 99 -86 116 0 31 -21 72 -55 103 -22 21 -36 25 -89 25 -55 0 -66
-4 -104 -33 -23 -19 -42 -40 -42 -47 0 -24 24 -23 58 2 52 39 84 46 126 29 26
-11 41 -26 52 -52 18 -42 10 -74 -32 -129 l-26 -35 65 0 c56 0 68 -3 81 -22
31 -44 11 -48 -213 -48 -219 0 -271 8 -296 43 -31 44 -10 186 41 273 63 107
178 194 285 215 51 10 61 16 79 46 11 19 35 40 52 48 41 18 42 18 83 1z"/>
<path d="M1190 936 c-27 -33 18 -72 48 -42 13 13 14 20 6 34 -15 23 -38 26
-54 8z"/>
</g>
</svg>
